<svg xmlns="http://www.w3.org/2000/svg" width="558" height="273" viewBox="0 0 558 273">
    <rect width="100%" height="100%" fill="#DDDDDD"/>
    <path fill="#999999" d="m127.84 118.04-1.89 11.13q1.78-.37 3.4-.53 1.63-.17 3.15-.17 4.22 0 7.44 1.26t5.4 3.48 3.29 5.19q1.11 2.98 1.11 6.42 0 4.26-1.5 7.77-1.5 3.52-4.16 6.02-2.66 2.49-6.31 3.86-3.64 1.37-7.93 1.37-2.52 0-4.78-.52-2.25-.51-4.23-1.38t-3.67-2q-1.68-1.13-3.01-2.39l2.81-3.88q.89-1.26 2.33-1.26.93 0 1.89.59t2.2 1.3q1.24.7 2.92 1.29t4.05.59q2.52 0 4.44-.81 1.93-.82 3.2-2.28 1.28-1.46 1.93-3.47.65-2.02.65-4.39 0-4.36-2.54-6.83-2.53-2.46-7.49-2.46-3.81 0-7.81 1.41l-5.7-1.63 4.44-25.97h26.42v3.88q0 1.96-1.22 3.19-1.22 1.22-4.14 1.22zm42.92 0-1.89 11.13q1.78-.37 3.4-.53 1.63-.17 3.15-.17 4.22 0 7.44 1.26 3.21 1.26 5.4 3.48 2.18 2.22 3.29 5.19 1.11 2.98 1.11 6.42 0 4.26-1.5 7.77-1.5 3.52-4.16 6.02-2.66 2.49-6.31 3.86-3.64 1.37-7.94 1.37-2.51 0-4.77-.52-2.26-.51-4.23-1.38-1.98-.87-3.67-2-1.68-1.13-3.01-2.39l2.81-3.88q.89-1.26 2.33-1.26.92 0 1.89.59.96.59 2.2 1.3 1.24.7 2.92 1.29t4.05.59q2.52 0 4.44-.81 1.93-.82 3.2-2.28 1.28-1.46 1.93-3.47.64-2.02.64-4.39 0-4.36-2.53-6.83-2.53-2.46-7.49-2.46-3.81 0-7.81 1.41l-5.7-1.63 4.44-25.97h26.42v3.88q0 1.96-1.22 3.19-1.22 1.22-4.14 1.22zm47.47 38.66q2.25 0 3.96-.65 1.7-.64 2.86-1.79 1.17-1.15 1.76-2.74t.59-3.44q0-4.4-2.44-6.66t-6.73-2.26-6.74 2.26q-2.44 2.26-2.44 6.66 0 1.85.59 3.44.6 1.59 1.76 2.74 1.17 1.15 2.87 1.79 1.7.65 3.96.65m0-40.66q-2.04 0-3.52.63t-2.46 1.68q-.98 1.06-1.44 2.42-.46 1.37-.46 2.89 0 1.59.39 3.09.38 1.5 1.31 2.66.92 1.17 2.44 1.87 1.52.71 3.74.71t3.73-.71q1.52-.7 2.45-1.87.92-1.16 1.31-2.66t.39-3.09q0-1.52-.48-2.89-.48-1.36-1.45-2.42-.96-1.05-2.44-1.68t-3.51-.63m9.03 19.31q4.88 1.59 7.21 4.87 2.33 3.27 2.33 8.01 0 3.55-1.35 6.44-1.35 2.88-3.79 4.92-2.44 2.03-5.87 3.14-3.42 1.11-7.56 1.11-4.15 0-7.57-1.11t-5.86-3.14q-2.45-2.04-3.8-4.92-1.35-2.89-1.35-6.44 0-4.74 2.33-8.01 2.34-3.28 7.22-4.87-3.89-1.63-5.83-4.62-1.94-3-1.94-7.22 0-3.03 1.24-5.66t3.46-4.57 5.31-3.03 6.79-1.09 6.79 1.09 5.31 3.03 3.46 4.57 1.24 5.66q0 4.22-1.95 7.22-1.94 2.99-5.82 4.62M296.59 151l-4.84 4.78-12.55-12.55-12.65 12.62-4.85-4.77 12.66-12.69-12.07-12.07 4.81-4.81 12.07 12.07 11.98-11.99 4.89 4.81-12.03 12.02zm44.55 3.74h13.73q1.48 0 2.35.83.87.84.87 2.2v5.48h-36.71v-3.03q0-.93.39-1.95.39-1.01 1.24-1.83l16.24-16.28q2.04-2.07 3.65-3.96 1.61-1.88 2.68-3.73t1.65-3.76q.57-1.91.57-4.01 0-1.93-.55-3.39-.56-1.46-1.58-2.46-1.01-1-2.44-1.5-1.42-.5-3.2-.5-1.63 0-3.01.46-1.39.47-2.46 1.3-1.08.83-1.82 1.94t-1.11 2.44q-.63 1.71-1.63 2.26-.99.56-2.88.26l-4.81-.85q.55-3.85 2.14-6.75 1.6-2.91 3.98-4.85 2.39-1.94 5.48-2.92t6.64-.98q3.7 0 6.77 1.09t5.25 3.09q2.19 2 3.41 4.81t1.22 6.25q0 2.96-.87 5.48-.87 2.51-2.33 4.81-1.46 2.29-3.42 4.44-1.96 2.14-4.11 4.36l-12.06 12.32q1.74-.51 3.46-.79t3.27-.28m23.79-44.99h36.97v3.96q0 1.77-.37 2.86-.37 1.1-.74 1.84l-20.28 41.73q-.63 1.3-1.78 2.2-1.14.91-3.07.91h-6.62l20.68-40.88q.71-1.26 1.39-2.32.68-1.05 1.54-2.01h-25.61q-.85 0-1.48-.63t-.63-1.48zm48.29 15.76-4.81-.85q.55-3.85 2.14-6.75 1.59-2.91 3.98-4.85t5.48-2.92 6.64-.98q3.7 0 6.68 1.05 2.98 1.06 5.08 2.92 2.11 1.87 3.24 4.39 1.13 2.51 1.13 5.44 0 2.55-.57 4.49-.58 1.95-1.65 3.39t-2.66 2.44-3.59 1.67q4.81 1.51 7.18 4.62 2.36 3.11 2.36 7.81 0 3.99-1.48 7.06-1.48 3.08-3.99 5.17-2.52 2.09-5.83 3.16t-7.01 1.07q-4.03 0-7.03-.92-3-.93-5.22-2.74t-3.77-4.44q-1.56-2.63-2.67-6.07l4.04-1.66q1.59-.67 2.98-.36 1.38.32 2.01 1.5.67 1.3 1.46 2.56.8 1.25 1.91 2.23 1.11.99 2.61 1.6t3.57.61q2.33 0 4.07-.76t2.9-1.98q1.17-1.22 1.74-2.72t.57-3.02q0-1.92-.4-3.49-.41-1.58-1.7-2.69-1.3-1.11-3.72-1.73-2.43-.63-6.5-.63v-6.52q3.37-.03 5.59-.62 2.22-.6 3.53-1.65 1.32-1.06 1.84-2.54.51-1.48.51-3.25 0-3.78-2.11-5.74-2.1-1.96-5.62-1.96-1.63 0-3 .46-1.37.47-2.46 1.3t-1.83 1.94-1.11 2.44q-.63 1.71-1.64 2.26-1.02.56-2.87.26"/>
</svg>