<svg xmlns="http://www.w3.org/2000/svg" width="848" height="477" viewBox="0 0 848 477">
    <rect width="100%" height="100%" fill="#DDDDDD"/>
    <path fill="#999999" d="M201.62 269.075q3.42 0 6-.98 2.57-.98 4.34-2.72 1.76-1.73 2.66-4.14.89-2.41.89-5.21 0-6.66-3.69-10.08-3.7-3.42-10.2-3.42-6.49 0-10.19 3.42-3.69 3.42-3.69 10.08 0 2.8.89 5.21.9 2.41 2.66 4.14 1.77 1.74 4.34 2.72 2.58.98 5.99.98m0-61.55q-3.08 0-5.32.96-2.24.95-3.72 2.54-1.48 1.6-2.18 3.67t-.7 4.37q0 2.41.58 4.68.59 2.26 1.99 4.03 1.4 1.76 3.7 2.83 2.29 1.06 5.65 1.06t5.66-1.06q2.3-1.07 3.7-2.83 1.4-1.77 1.98-4.03.59-2.27.59-4.68 0-2.3-.73-4.37-.72-2.07-2.18-3.67-1.46-1.59-3.7-2.54-2.24-.96-5.32-.96m13.67 29.24q7.39 2.4 10.92 7.36t3.53 12.12q0 5.38-2.05 9.75-2.04 4.37-5.74 7.45-3.69 3.08-8.87 4.76t-11.46 1.68q-6.27 0-11.45-1.68t-8.87-4.76q-3.7-3.08-5.74-7.45-2.05-4.37-2.05-9.75 0-7.16 3.53-12.12t10.92-7.36q-5.88-2.47-8.82-7-2.94-4.54-2.94-10.92 0-4.6 1.88-8.57 1.87-3.98 5.23-6.92t8.04-4.59q4.67-1.65 10.27-1.65t10.28 1.65 8.04 4.59 5.23 6.92q1.88 3.97 1.88 8.57 0 6.38-2.94 10.92-2.94 4.53-8.82 7m34.05 11.7h24.64v-26.49q0-3.75.5-8.29zm36.68 0h10.19v8.01q0 1.12-.73 1.93t-2.07.81h-7.39v19.77h-12.04v-19.77h-34.16q-1.4 0-2.47-.87-1.06-.86-1.34-2.15l-1.46-7 38.36-51.24h13.11zm45.52 20.61q3.42 0 6-.98 2.57-.98 4.34-2.72 1.76-1.73 2.66-4.14.89-2.41.89-5.21 0-6.66-3.69-10.08-3.7-3.42-10.2-3.42-6.49 0-10.19 3.42-3.69 3.42-3.69 10.08 0 2.8.89 5.21.9 2.41 2.66 4.14 1.77 1.74 4.34 2.72 2.58.98 5.99.98m0-61.55q-3.08 0-5.32.96-2.24.95-3.72 2.54-1.48 1.6-2.18 3.67t-.7 4.37q0 2.41.58 4.68.59 2.26 1.99 4.03 1.4 1.76 3.7 2.83 2.29 1.06 5.65 1.06t5.66-1.06q2.3-1.07 3.7-2.83 1.4-1.77 1.98-4.03.59-2.27.59-4.68 0-2.3-.73-4.37-.72-2.07-2.18-3.67-1.46-1.59-3.7-2.54-2.24-.96-5.32-.96m13.67 29.24q7.39 2.4 10.92 7.36t3.53 12.12q0 5.38-2.05 9.75-2.04 4.37-5.74 7.45-3.69 3.08-8.87 4.76t-11.46 1.68q-6.27 0-11.45-1.68t-8.87-4.76q-3.7-3.08-5.74-7.45-2.05-4.37-2.05-9.75 0-7.16 3.53-12.12t10.92-7.36q-5.88-2.47-8.82-7-2.94-4.54-2.94-10.92 0-4.6 1.88-8.57 1.87-3.98 5.23-6.92t8.04-4.59q4.67-1.65 10.27-1.65t10.28 1.65 8.04 4.59 5.23 6.92q1.88 3.97 1.88 8.57 0 6.38-2.94 10.92-2.94 4.53-8.82 7m104.94 23.68-7.33 7.23-18.99-18.99-19.15 19.1-7.34-7.22 19.16-19.21-18.26-18.26 7.28-7.28 18.26 18.26 18.14-18.15 7.39 7.28-18.2 18.2zm48.5-11.98h24.64v-26.49q0-3.75.5-8.29zm36.68 0h10.19v8.01q0 1.12-.73 1.93t-2.07.81h-7.39v19.77h-12.04v-19.77h-34.16q-1.4 0-2.47-.87-1.06-.86-1.34-2.15l-1.46-7 38.36-51.24h13.11zm18.25-50.46h55.95v6q0 2.68-.56 4.34-.56 1.65-1.12 2.77l-30.69 63.17q-.95 1.96-2.69 3.33-1.73 1.37-4.65 1.37H559.8l31.3-61.88q1.07-1.9 2.1-3.5 1.04-1.6 2.33-3.05h-38.75q-1.29 0-2.24-.95-.96-.96-.96-2.24zm64.96 0h55.95v6q0 2.68-.56 4.34-.56 1.65-1.12 2.77l-30.69 63.17q-.95 1.96-2.69 3.33-1.73 1.37-4.65 1.37h-10.02l31.3-61.88q1.07-1.9 2.1-3.5 1.04-1.6 2.33-3.05h-38.75q-1.29 0-2.24-.95-.96-.96-.96-2.24z"/>
</svg>